<?xml version="1.0" encoding="iso-8859-1"?>
<!-- Generator: Adobe Illustrator 19.0.0, SVG Export Plug-In . SVG Version: 6.00 Build 0)  -->
<svg version="1.1" id="Capa_1" xmlns="http://www.w3.org/2000/svg" xmlns:xlink="http://www.w3.org/1999/xlink" x="0px" y="0px"
	 viewBox="0 0 512 512" style="enable-background:new 0 0 512 512;" xml:space="preserve">
<path style="fill:#B1FFFF;" d="M38,130.75v250.5h436v-250.5H38z M133,287.75H68v-32.5h65V287.75z M133,199.75H68v-32.5h65V199.75z
	 M236.67,287.75h-65v-32.5h65V287.75z M236.67,199.75h-65v-32.5h65V199.75z M340.33,287.75h-65v-32.5h65V287.75z M340.33,199.75h-65
	v-32.5h65V199.75z M444,287.75h-65v-32.5h65V287.75z M444,199.75h-65v-32.5h65V199.75z"/>
<g>
	<path style="fill:#304FFE;" d="M512,419.25H0V92.75h512V419.25z M16,403.25h480v-294.5H16V403.25z"/>
	<path style="fill:#304FFE;" d="M141,207.71H60v-48.5h81V207.71z M76,191.71h49v-16.5H76V191.71z"/>
	<path style="fill:#304FFE;" d="M244.67,207.71h-81v-48.5h81V207.71z M179.67,191.71h49v-16.5h-49V191.71z"/>
	<path style="fill:#304FFE;" d="M348.33,207.71h-81v-48.5h81V207.71z M283.33,191.71h49v-16.5h-49V191.71z"/>
	<path style="fill:#304FFE;" d="M452,207.71h-81v-48.5h81V207.71z M387,191.71h49v-16.5h-49V191.71z"/>
	<path style="fill:#304FFE;" d="M141,295.71H60v-48.5h81V295.71z M76,279.71h49v-16.5H76V279.71z"/>
	<path style="fill:#304FFE;" d="M244.67,295.71h-81v-48.5h81V295.71z M179.67,279.71h49v-16.5h-49V279.71z"/>
	<path style="fill:#304FFE;" d="M348.33,295.71h-81v-48.5h81V295.71z M283.33,279.71h49v-16.5h-49V279.71z"/>
	<path style="fill:#304FFE;" d="M452,295.71h-81v-48.5h81V295.71z M387,279.71h49v-16.5h-49V279.71z"/>
	<rect x="115.5" y="336.79" style="fill:#304FFE;" width="281" height="16"/>
</g>
<g>
</g>
<g>
</g>
<g>
</g>
<g>
</g>
<g>
</g>
<g>
</g>
<g>
</g>
<g>
</g>
<g>
</g>
<g>
</g>
<g>
</g>
<g>
</g>
<g>
</g>
<g>
</g>
<g>
</g>
</svg>
