<?xml version="1.0" encoding="iso-8859-1"?>
<!-- Generator: Adobe Illustrator 19.0.0, SVG Export Plug-In . SVG Version: 6.00 Build 0)  -->
<svg version="1.1" id="Capa_1" xmlns="http://www.w3.org/2000/svg" xmlns:xlink="http://www.w3.org/1999/xlink" x="0px" y="0px"
	 viewBox="0 0 512 512" style="enable-background:new 0 0 512 512;" xml:space="preserve">
<path style="fill:#FDA75F;" d="M252.246,85.989c-71.629,1.982-129.013,61.412-128.617,133.068
	c0.205,37.247,15.797,70.846,40.739,94.775c13.45,12.903,21.277,30.579,21.277,49.217v36.491h140.712v-36.493
	c0-18.581,7.735-36.256,21.159-49.103c25.177-24.096,40.859-58.032,40.859-95.634C388.374,143.955,327.068,83.918,252.246,85.989z"
	/>
<path style="opacity:0.1;enable-background:new    ;" d="M274.383,87.214c53.357,17.075,91.989,67.07,91.989,126.094
	c0,37.602-15.681,71.538-40.859,95.633c-13.424,12.848-21.159,30.522-21.159,49.103v36.493h-1.802
	c1.333,1.487,2.452,3.171,3.325,5.003h20.478v-36.493c0-18.581,7.735-36.256,21.159-49.103
	c25.177-24.096,40.859-58.031,40.859-95.634C388.374,151.441,338.789,96.163,274.383,87.214z"/>
<path style="fill:#404B58;" d="M326.356,448.254H185.644l17.989,32.759C214.127,500.123,234.198,512,256,512l0,0
	c21.802,0,41.873-11.877,52.367-30.987L326.356,448.254z"/>
<path style="opacity:0.1;enable-background:new    ;" d="M185.644,448.254l13.887,25.289h95.728l-4.102,7.47
	c-9.095,16.564-25.386,27.686-43.762,30.359l0,0c2.826,0.411,5.699,0.628,8.605,0.628l0,0c21.802,0,41.873-11.877,52.367-30.987
	l17.989-32.759H185.644z"/>
<path style="fill:#FFFFFF;" d="M287.153,393.898c-4.142,0-7.5-3.358-7.5-7.5v-28.929c0-17.092,3.92-34.267,11.336-49.666
	l3.483-7.232c-11.345,5.927-25.287,3.684-34.229-5.868c-1.111-1.186-2.618-1.84-4.243-1.84s-3.132,0.653-4.243,1.84
	c-8.943,9.551-22.885,11.794-34.23,5.868l3.483,7.232c7.416,15.399,11.336,32.574,11.336,49.666v28.929c0,4.142-3.358,7.5-7.5,7.5
	s-7.5-3.358-7.5-7.5v-28.929c0-14.853-3.406-29.776-9.851-43.157l-15.344-31.86c-1.47-3.052-0.711-6.71,1.85-8.926
	c2.562-2.216,6.29-2.441,9.099-0.547l19.992,13.475c5.627,3.792,13.076,2.95,17.713-2.003c3.919-4.187,9.457-6.588,15.192-6.588
	s11.273,2.401,15.193,6.588c4.637,4.953,12.086,5.796,17.713,2.003l19.992-13.475c2.809-1.893,6.538-1.668,9.099,0.547
	c2.561,2.216,3.32,5.874,1.85,8.926l-15.344,31.86c-6.444,13.381-9.851,28.305-9.851,43.157v28.929
	C294.653,390.54,291.295,393.898,287.153,393.898z"/>
<path style="fill:#E8E8E8;" d="M323.253,461.482H188.747c-16.312,0-29.536-13.224-29.536-29.536v-16.012
	c0-16.312,13.224-29.536,29.536-29.536h134.505c16.312,0,29.536,13.224,29.536,29.536v16.012
	C352.788,448.259,339.565,461.482,323.253,461.482z"/>
<path style="opacity:0.1;enable-background:new    ;" d="M323.253,386.398h-20.478c16.312,0,29.536,13.224,29.536,29.536v16.012
	c0,16.312-13.224,29.536-29.536,29.536h20.478c16.312,0,29.536-13.224,29.536-29.536v-16.012
	C352.789,399.622,339.565,386.398,323.253,386.398z"/>
<g>
	<path style="fill:#FDA75F;" d="M132.834,102.645c-1.919,0-3.839-0.732-5.303-2.197l-25.899-25.899
		c-2.929-2.929-2.929-7.678,0-10.606c2.929-2.929,7.678-2.929,10.606,0l25.899,25.899c2.929,2.929,2.929,7.678,0,10.606
		C136.673,101.912,134.753,102.645,132.834,102.645z"/>
	<path style="fill:#FDA75F;" d="M256,51.627c-4.142,0-7.5-3.358-7.5-7.5V7.5c0-4.142,3.358-7.5,7.5-7.5s7.5,3.358,7.5,7.5v36.627
		C263.5,48.27,260.142,51.627,256,51.627z"/>
	<path style="fill:#FDA75F;" d="M379.166,102.645c-1.919,0-3.839-0.732-5.303-2.197c-2.929-2.929-2.929-7.678,0-10.606
		l25.899-25.899c2.929-2.929,7.678-2.929,10.607,0s2.929,7.678,0,10.606l-25.9,25.899
		C383.005,101.912,381.085,102.645,379.166,102.645z"/>
	<path style="fill:#FDA75F;" d="M466.81,225.811h-36.627c-4.142,0-7.5-3.358-7.5-7.5s3.358-7.5,7.5-7.5h36.627
		c4.142,0,7.5,3.358,7.5,7.5S470.953,225.811,466.81,225.811z"/>
	<path style="fill:#FDA75F;" d="M81.817,225.811H45.19c-4.142,0-7.5-3.358-7.5-7.5s3.358-7.5,7.5-7.5h36.627
		c4.142,0,7.5,3.358,7.5,7.5S85.959,225.811,81.817,225.811z"/>
</g>
<path style="opacity:0.1;enable-background:new    ;" d="M159.212,431.947c0,4.1,0.837,8.005,2.347,11.554h188.883
	c1.51-3.549,2.347-7.454,2.347-11.554V428.5H159.212V431.947z M350.442,404.38H161.559c-1.51,3.549-2.347,7.454-2.347,11.554v3.446
	h193.577v-3.446C352.789,411.834,351.952,407.929,350.442,404.38z"/>
<g>
	<path style="fill:#404B58;" d="M198.677,204.034c-4.142,0-7.5-3.358-7.5-7.5v-9.516c0-4.142,3.358-7.5,7.5-7.5s7.5,3.358,7.5,7.5
		v9.516C206.177,200.676,202.819,204.034,198.677,204.034z"/>
	<path style="fill:#404B58;" d="M313.323,204.034c-4.142,0-7.5-3.358-7.5-7.5v-9.516c0-4.142,3.358-7.5,7.5-7.5s7.5,3.358,7.5,7.5
		v9.516C320.823,200.676,317.465,204.034,313.323,204.034z"/>
	<path style="fill:#404B58;" d="M256,211.341c-7.96,0-15.529-3.447-20.768-9.458c-2.721-3.122-2.396-7.86,0.727-10.581
		c3.122-2.721,7.86-2.396,10.581,0.727c2.388,2.741,5.836,4.313,9.459,4.313c3.623,0,7.07-1.572,9.458-4.313
		c2.721-3.124,7.459-3.448,10.582-0.727c3.123,2.722,3.448,7.459,0.727,10.581C271.529,207.894,263.96,211.341,256,211.341z"/>
</g>
<g>
</g>
<g>
</g>
<g>
</g>
<g>
</g>
<g>
</g>
<g>
</g>
<g>
</g>
<g>
</g>
<g>
</g>
<g>
</g>
<g>
</g>
<g>
</g>
<g>
</g>
<g>
</g>
<g>
</g>
</svg>
